<?xml version="1.0" encoding="utf-8"?>
<!-- Generator: Adobe Illustrator 18.1.1, SVG Export Plug-In . SVG Version: 6.00 Build 0)  -->
<!DOCTYPE svg PUBLIC "-//W3C//DTD SVG 1.1//EN" "http://www.w3.org/Graphics/SVG/1.1/DTD/svg11.dtd">
<svg version="1.1" id="Layer_1" xmlns="http://www.w3.org/2000/svg" xmlns:xlink="http://www.w3.org/1999/xlink" x="0px" y="0px"
	 viewBox="0 0 220.9 66" enable-background="new 0 0 220.9 66" xml:space="preserve">
<g>
	<polygon fill="#FFFFFF" points="-83.2,18 -31.3,18.1 -31.2,18.1 -31.2,13.3 -83.2,13.3 	"/>
	<polygon fill="#FFFFFF" points="-31.3,36.9 -31.2,36.9 -31.2,32.2 -83.2,32.2 -83.2,36.9 	"/>
	<polygon fill="#FFFFFF" points="-31.2,55.8 -31.2,51.1 -83.2,51 -83.2,55.8 -31.3,55.8 	"/>
</g>
<g>
	<path fill="#E2392E" d="M216.9,47.1h-31.7c-2.2,0-4-1.8-4-4V11.3c0-2.2,1.8-4,4-4h31.7c2.2,0,4,1.8,4,4v31.7
		C220.9,45.3,219.1,47.1,216.9,47.1z"/>
	<path fill="#E2392E" d="M38.3,52.7c4.6-1.7,9.4-2.5,14.1-3.5c13.5-2.9,27.1-4.9,40.9-6.1c17.1-1.5,34.3-1.9,51.5-1
		c0.9,0,2.2-0.2,2.2,1.2c0,1.1-1.2,1.4-2.2,1.4c-0.8,0-1.6,0.1-2.4,0.1c-1,0.1-2-0.3-2.6,1.1c-0.2,0.6-1.3,0.5-2,0.6
		c-5.3,0.7-10.6,0.5-15.9,0.5c-1,0-1.9-0.1-2.7,0.9c-0.9,1.1-2.4,0.9-3.8,0.9C91.1,48.2,67,51.3,43,55.2c-1,0.2-2,0.3-3,0.5
		C39.2,54.8,38.1,54.1,38.3,52.7z"/>
	<path fill="#FFFFFF" d="M38.3,52.7c-0.3,1.4,0.8,2.1,1.7,2.9c0.6,1,1.2,2,1.8,3c0.2,0.4,0.6,0.8,0.2,1.2c-0.3,0.4-0.8,0.2-1.2,0.1
		c-1.4-0.4-2.6-1.2-3.9-2c-0.9-0.6-1.7-1.4-2.9-1.5c-0.1-1.3-1.3-1.6-2.1-2.3C26.4,48.5,22,42.1,18.8,34.9c-0.3-0.8-1.1-2.1-0.3-2.4
		c1.2-0.5,1.3-2.1,3-2.1c2,0.1,4-0.2,5.9-0.8c2.3-0.6,4.6-1.4,5-4c0.4-2.6-1.6-4.2-3.6-5.4c-4.2-2.5-8.8-4.2-13.6-4.9
		c-4.2-0.6-8.4-0.7-12.5,0.4c-0.8,0.2-1.9,0.6-2.4-0.3c-0.6-1.1,0.6-1.7,1.2-2.3c3.8-3.2,7.8-5.3,13.1-4.4C21,9.9,27.2,11.6,32.2,16
		c3.3,2.9,6.1,6.5,4.5,11.2c-1.5,4.5-5.7,5.3-9.9,5.5c-0.1,0-0.3,0.1-0.5,0.2c2.2,5.6,5.6,10.5,8.8,15.5
		C36.1,49.9,36.6,51.8,38.3,52.7z"/>
	<path fill="#FFFFFF" d="M77.8,24.5C78.6,17,79.2,9.8,79,2.7c0-0.9-0.6-2.2,0.4-2.6c1.1-0.4,1.7,0.9,2.4,1.6c4.1,4.4,4.3,9.5,3,15
		c-2,8-4.5,15.8-7.5,23.5c-0.3,0.8-0.5,2.1-1.5,1.9c-1.2-0.2-0.8-1.6-0.8-2.5c0-0.6,0-1.3,0-2.1c-2.1,1.2-4,2.4-6.2,2.9
		c-3.3,0.8-5.4-0.6-5.7-4c-0.5-5.1,1-9.7,4.4-13.5c3-3.4,6.2-3.3,9.2,0.1C76.9,23.5,77.2,23.8,77.8,24.5z M70.7,36.5
		c2,0,5.8-3.4,6.1-5.4c0.2-1-0.2-1-1.1-1c-2.3-0.1-3.2-1.3-2.9-3.7c0.1-0.5,0.1-1.1-0.5-1.3c-0.5-0.2-0.8,0.3-1.1,0.6
		c-2,2.3-3.1,5-3.2,8C68,35.3,68.7,36.5,70.7,36.5z"/>
	<path fill="#FFFFFF" d="M20.1,20.3c-0.1,1.1-0.4,2-0.8,2.9C14,35.5,10.8,48.4,7.5,61.3c-0.3,1.1-0.1,2.3-0.2,3.5
		c0,0.5,0,1.1-0.7,1.2c-0.6,0.1-1-0.2-1.1-0.8c-0.2-1.3-1.1-2-2-2.7c-2.1-1.8-2.6-4.1-2.1-6.8C2.5,49.8,5,44.4,7.6,39.1
		c2.9-6,6.1-11.7,9.4-17.5c0.4-0.7,0.8-1.4,1.3-2c0.3-0.4,0.6-1.2,1.3-0.9C20.3,19,20.1,19.7,20.1,20.3z"/>
	<path fill="#FFFFFF" d="M86.6,30.5c-0.1-2.2,0.3-4.4,0.8-6.6c0.3-1.5,0.7-3.1,2.4-3.4c1.3-0.2,2.8,0.2,3.5,1.4
		c1,1.7,0.3,3.4-0.7,4.7c-1.8,2.3-1.5,4.8-1.5,7.4c0,1,0.7,0.8,1.2,0.4c1.1-0.8,2.3-1.6,3.2-2.6c3.3-3.7,6.8-7.3,9.1-11.9
		c0.5-1,1.3-1.8,2.2-0.6c2,2.7,4.4,5.2,5.7,8.4c1.6,3.9,0.6,6.7-3.2,8.5c-2,0.9-4.1,1.2-6.2,1.2c-0.7,0-1.6,0.2-1.8-0.8
		c-0.2-0.8,0.7-1,1.2-1.4c3.5-2.2,4.4-4.8,2.8-8.6c-0.5-1.2-0.8-1.3-1.7-0.3c-2.2,2.5-4.6,5-6.9,7.4c-1.5,1.6-3.3,2.9-5.3,3.9
		c-1.7,0.8-3,0.5-3.7-1.4C86.7,34.4,86.5,32.5,86.6,30.5z"/>
	<path fill="#FFFFFF" d="M49.5,40.7c-1.9,2.1-3.7,3.4-6,3.9c-3.6,0.8-5.6-0.8-5.7-4.4c0-1.9,0.4-3.6,1.2-5.3c1.2-3,3.1-5.5,5.2-7.9
		c2.5-3,4.5-3.2,7.5-0.5c0.3-0.6,0.5-1.2,0.8-1.8c0.6-1.3,1.4-2,2.6-0.5c0.2,0.3,0.5,0.5,0.9,0.6c1.8,0.5,1.6,1.5,1.1,3.1
		c-1,2.8-1.6,5.8-2.4,8.7c-0.2,0.6-0.4,1.3,0.1,1.7c0.6,0.5,1-0.3,1.5-0.5c1.2-0.5,2.9-2.3,3.6-1.3c0.8,1.2-1.3,2-2.2,3
		c-0.4,0.4-0.6,0.9-0.8,1.5c-0.7,2.3-2.8,2.5-4.6,2.8C50.5,44,49.8,42.6,49.5,40.7z M43.6,38.7c0.1,1-0.2,1.8,0.7,2.2
		c1.2,0.5,2.2,0,3.1-0.6c2.1-1.3,4.1-9.7,2.9-12c-0.5-0.9-0.8-0.9-1.4-0.2C46.2,31.2,44.1,34.6,43.6,38.7z"/>
	<path fill="#FFFFFF" d="M161.7,26.3c3.5-4.6,4.1-4.6,6.8,0.5c1.7,3.1,3.3,6.3,6.1,8.6c1.1,0.9,2.1,2.1,1.5,3.7
		c-0.5,1.1-1.8,1.1-2.9,1.2c-1.6,0.1-3.2,0.2-4-1.6c-1.7-3.8-3.3-7.7-4.1-12.1c-1.6,1.3-2.3,2.9-3.1,4.5c-1.1,2.3-2.1,4.6-4.4,6
		c-1.7,1-2.9,0.7-3.3-1.2c-1-4.9,0-9.7,2.1-14.2c0.4-0.9,1.4-1.6,2.6-1.1c1.3,0.5,2.7,1,2.7,2.8c0,0.9-0.3,1.7-0.5,2.6
		c-0.1,0.2-0.4,0.5-0.1,0.7C161.3,26.8,161.5,26.5,161.7,26.3z M159.2,30.1c1-0.9,1.6-2,2.1-3.6C159,27.1,159,28.5,159.2,30.1z"/>
	<path fill="#FFFFFF" d="M144.4,23.2c0.3,0,0.6-0.2,0.9-0.1c1.6,0.7,3.7,6.9,2.9,8.4c-0.1,0.1-0.2,0.3-0.3,0.3
		c-3.4,1.1-5.7,4.4-9.5,4.8c-3.3,0.3-5.2-1.3-4.1-4.5c1.6-4.9,4.4-9.1,7.3-13.3c1.1-1.5,2.6-0.9,4-0.7c0.8,0.2,0.5,0.9,0.2,1.4
		c-0.6,1.1-1.5,2-1.8,3.2c-0.1,0.1-0.2,0.3-0.3,0.4c-1.2,2.5-2.4,5-2.9,7.8c-0.1,0.6-0.4,1.4,0.6,1.6c1.4,0.3,3.9-2.4,3.7-3.8
		c-0.3-1.7-1.4-3.3-0.8-5.1C144.1,23.5,144.2,23.3,144.4,23.2z"/>
	<path fill="#FFFFFF" d="M120.3,36.6c-1-0.1-1.9,0.1-2.2-0.8c-0.3-1,0.6-1.1,1.2-1.5c3.6-2,4.5-5,2.7-8.8c-0.4-0.8-0.7-1.2-1.6-0.5
		c-0.9,0.8-2,1.6-2.9,2.3c-0.4,0.3-0.7,0.6-1.2,0.4c-0.5-0.2-0.4-0.7-0.4-1.2c0-1.1,0.6-1.9,1.5-2.6c1.9-1.4,3.5-3.1,4.4-5.4
		c0.5-1.2,1.4-2.1,2.6-2.6c0.5-0.2,1-0.2,1.4,0.3c0.4,0.5,0.2,0.9-0.1,1.4c-1.9,3-1.7,4.2,1,6.4c0.1,0,0.1,0.1,0.2,0.1
		c1.9,1.7,4,3.4,3.4,6.2c-0.6,3.2-3.1,4.7-6.1,5.4C122.8,36.4,121.4,36.5,120.3,36.6z"/>
	<path fill="#E2392E" d="M155.8,42.7c2,0.2,4.1,0.3,6.1,0.5c0.7,0.1,1.5,0.3,1.7,1.2c0.2,1-0.6,1.4-1.4,1.7
		c-2.2,0.9-4.6,1.1-6.9,0.7c-0.8-0.1-1.2-0.6-1.7-1.3c-0.7-0.9-1.8-0.7-2.8-0.8c-0.6-0.1-1.5,0-1.5-0.8c-0.1-0.9,0.7-1.3,1.5-1.3
		c1.7-0.1,3.4,0,5.1,0C155.8,42.6,155.8,42.6,155.8,42.7z"/>
	<path fill="#FFFFFF" d="M93.2,13.7c0.2-1.2,0.3-2.2,0.4-3.2c0.2-1.3,0.7-2.3,2.1-2.6c1-0.2,1.8,0.2,2.3,1c0.7,1.1,0.8,2.3,0.1,3.3
		c-0.9,1.4-2.4,2.2-3.9,2.7C92.7,15.4,93.4,14.1,93.2,13.7z"/>
	<path fill="#E2392E" d="M32.1,54c0.7,0.7,2,1,2.1,2.3c-2.6,0.9-5.3,1.1-7.9,1.6c-0.4,0.1-1.2,0.3-1.4-0.3c-0.2-0.7,0.4-1.1,0.9-1.3
		c1.7-0.7,3.4-1.2,5.2-1.8C31.3,54.4,31.8,54.4,32.1,54z"/>
	<path fill="#E2392E" d="M212.3,26.3c0,1.2,0,2.3,0,3.5c0,1.3-0.8,1.9-2,1.8c-1.3,0-0.9-1.1-1-1.8c0-2.4,0-4.8,0-7.3
		c0-0.7-0.1-1.6,1-1.6c1,0,1.9,0.2,1.9,1.5C212.3,23.8,212.3,25.1,212.3,26.3z"/>
	<path fill="#E2392E" d="M192,23c0,0.6,0,1.1,0,1.5c0,1-0.7,1-1.3,1c-0.5,0-0.9-0.3-0.9-0.7c0-1.2-0.4-2.5,0.2-3.6
		c0.3-0.5,1-0.3,1.4-0.2C192.9,21.3,191.6,22.5,192,23z"/>
	<g>
		<path fill="#FFFFFF" d="M211,18c-0.6,0-1.2,0-1.8,0c-0.9,0-1.9,0-2.8,0c-0.1,0-0.2,0-0.3,0c0,5.5,0,11,0,16.5c0.8,0,1.6,0,2.5,0
			c0.8,0,1.5,0,2.3,0c0.3,0,0.6,0,0.9-0.1c2-0.2,3.5-1.7,3.6-3.8c0-2.9,0-5.7,0-8.6c0-1-0.3-1.8-0.9-2.6C213.6,18.4,212.4,18,211,18
			z M212.3,30.1c0,0.3,0,0.5-0.1,0.8c-0.1,0.5-0.5,0.9-1,0.9c-0.3,0-0.5,0-0.8,0c-0.4,0-0.8,0-1.2,0c0-0.1,0-0.2,0-0.3
			c0-3.5,0-7,0-10.5c0-0.3,0.1-0.4,0.3-0.4c0,0,0.1,0,0.1,0c0.4,0,0.8,0,1.2,0c1.1,0,1.5,0.8,1.5,1.7c0,1.1,0,2.2,0,3.2
			C212.3,27.1,212.3,28.6,212.3,30.1z"/>
		<g>
			<path fill="#FFFFFF" d="M194,26.5c0.4,0.3,0.8,0.5,1.1,0.8c0.5,0.5,0.7,1.1,0.7,1.8c0,1.1,0,2.2,0,3.3c0,0.4,0.1,0.8,0.3,1.1
				c0.3,0.4,0.2,0.8,0.2,1.2c-0.8,0-1.5,0-2.3,0c-0.5,0-0.9-0.4-1-0.9c-0.1-0.5-0.2-0.9-0.2-1.4c0-1,0-2,0-3c0-0.3-0.1-0.6-0.2-0.9
				c-0.2-0.4-0.5-0.7-1-0.7c-0.6,0-1.2,0-1.8,0c0,2.3,0,4.6,0,6.8c-1,0-2,0-3.1,0c0-5.5,0-11,0-16.5c0.1,0,0.3,0,0.4,0
				c1.6,0,3.2,0,4.8,0c0.5,0,1,0.1,1.4,0.2c1.3,0.4,2.1,1.3,2.2,2.7c0.1,1.1,0.1,2.3,0,3.4c0,1-0.6,1.7-1.6,2
				C194.1,26.4,194.1,26.5,194,26.5z M190,25.4c0.6,0,1.1,0,1.7,0c0.7,0,1.1-0.4,1.1-1.1c0-0.9,0-1.8,0-2.7c0-0.7-0.4-1-1-1
				c-0.5,0-1,0-1.4,0c-0.3,0-0.3,0.1-0.3,0.3c0,1.4,0,2.8,0,4.3C190,25.2,190,25.3,190,25.4z"/>
		</g>
		<g>
			<path fill="#FFFFFF" d="M203.7,24.8c0,0.8,0,1.6,0,2.4c-1.1,0-2.2,0-3.3,0c0,1.6,0,3.1,0,4.6c1.6,0,3.2,0,4.8,0
				c0,0.9,0,1.8,0,2.7c-2.6,0-5.2,0-7.8,0c0-5.5,0-11,0-16.5c2.6,0,5.2,0,7.8,0c0,0.9,0,1.7,0,2.6c-1.6,0-3.2,0-4.8,0
				c0,1.4,0,2.8,0,4.2C201.5,24.8,202.6,24.8,203.7,24.8z"/>
		</g>
		<g>
			<path fill="#FFFFFF" d="M214.7,20.7c0.1,0,0.3,0,0.4,0c-0.1-0.4-0.4-0.8-0.6-1.1c-0.9-1.1-2.1-1.5-3.5-1.5c0,0-0.1,0-0.1,0v2.6
				c1,0,1.4,0.8,1.4,1.7c0,1.1,0,2.2,0,3.2c0,1.5,0,3.1,0,4.6c0,0.3,0,0.5-0.1,0.8c-0.1,0.5-0.5,0.9-1,0.9c-0.1,0-0.2,0-0.3,0v2.7
				c0,0,0,0,0,0c0.3,0,0.6,0,0.9-0.1c1.6-0.2,2.9-1.2,3.4-2.6c-0.2,0-0.3,0-0.5,0c-0.1,0-0.3,0-0.4,0v-4.4c0.2,0,0.3,0,0.5,0
				c0.2,0,0.4,0,0.6,0c0.1,0,0.1,0,0.1,0c0-0.8,0-1.7,0-2.5c-0.1,0-0.1,0-0.2,0c-0.2,0-0.4,0-0.5,0c-0.1,0-0.3,0-0.4,0v-4.3
				C214.4,20.7,214.5,20.7,214.7,20.7z"/>
		</g>
	</g>
</g>
</svg>
