<?xml version="1.0" encoding="utf-8"?>
<!-- Generator: Adobe Illustrator 18.1.1, SVG Export Plug-In . SVG Version: 6.00 Build 0)  -->
<!DOCTYPE svg PUBLIC "-//W3C//DTD SVG 1.1//EN" "http://www.w3.org/Graphics/SVG/1.1/DTD/svg11.dtd">
<svg version="1.1" id="Layer_1" xmlns="http://www.w3.org/2000/svg" xmlns:xlink="http://www.w3.org/1999/xlink" x="0px" y="0px"
	 viewBox="0 0 197.6 36.6" enable-background="new 0 0 197.6 36.6" xml:space="preserve">
<path d="M-507.2,67.3v-5.4c0-0.3,0.1-0.5,0.4-0.5h0.1c0.3,0,0.4,0.2,0.4,0.5v5.4c0,0.3-0.1,0.5-0.4,0.5h-0.1
	C-507,67.7-507.2,67.6-507.2,67.3"/>
<path d="M-502.3,67.3v-5.3c0-0.3,0.2-0.6,0.5-0.6h0.2c0.3,0,0.4,0.1,0.6,0.4l3.1,4.4v-4.3c0-0.3,0.1-0.5,0.4-0.5h0.1
	c0.3,0,0.4,0.2,0.4,0.5v5.3c0,0.3-0.2,0.6-0.5,0.6h-0.1c-0.3,0-0.4-0.1-0.5-0.3l-3.3-4.6v4.5c0,0.3-0.1,0.5-0.4,0.5h-0.1
	C-502.2,67.7-502.3,67.6-502.3,67.3"/>
<path d="M-493.2,67.3v-5.3c0-0.3,0.2-0.6,0.5-0.6h0.2c0.3,0,0.4,0.1,0.6,0.4l3.1,4.4v-4.3c0-0.3,0.1-0.5,0.4-0.5h0.1
	c0.3,0,0.4,0.2,0.4,0.5v5.3c0,0.3-0.2,0.6-0.5,0.6h-0.1c-0.3,0-0.4-0.1-0.5-0.3l-3.3-4.6v4.5c0,0.3-0.1,0.5-0.4,0.5h-0.1
	C-493.1,67.7-493.2,67.6-493.2,67.3"/>
<path d="M-484.5,66.6c0-0.3,0.4-0.6,0.5-0.5c0.4,0.5,1,1,1.9,1c0.9,0,1.4-0.4,1.4-1c0-0.7-0.7-0.9-1.6-1.1c-1-0.2-2-0.6-2-1.8
	c0-1.1,0.9-1.8,2.3-1.8c1.4,0,2.2,0.7,2.2,1.1c0,0.4-0.4,0.6-0.5,0.6c-0.3-0.5-1-0.8-1.7-0.8c-0.8,0-1.3,0.4-1.3,1
	c0,0.7,0.6,0.8,1.5,1c1.1,0.2,2.1,0.7,2.1,1.9c0,1.2-0.9,1.9-2.4,1.9C-483.7,67.8-484.5,67.1-484.5,66.6"/>
<path d="M-472.8,65.9c0-0.9,0.6-1.5,1.6-1.8c-0.3-0.3-0.6-0.8-0.6-1.3c0-0.9,0.7-1.6,1.8-1.6c1,0,1.6,0.6,1.6,1.5
	c0,0.7-0.5,1.3-1.5,1.5l1.5,1.3c0.2-0.4,0.3-0.8,0.5-1.3c0.1-0.4,0.3-0.5,0.6-0.5c0.3,0,0.4,0.2,0.4,0.3c-0.2,0.8-0.5,1.5-0.9,2.1
	l1.3,1.2c0,0-0.1,0.4-0.5,0.4c-0.2,0-0.4,0-0.6-0.3l-0.7-0.6c-0.6,0.6-1.3,1-2.2,1C-471.8,67.8-472.8,67.1-472.8,65.9 M-468.8,66.3
	l-1.9-1.7c-0.7,0.2-1.1,0.6-1.1,1.3c0,0.8,0.6,1.2,1.4,1.2C-469.8,67.1-469.2,66.7-468.8,66.3 M-470.3,63.9c0.8-0.2,1.2-0.5,1.2-1.1
	c0-0.5-0.3-0.8-0.8-0.8c-0.6,0-0.8,0.4-0.8,0.8C-470.8,63.2-470.6,63.5-470.3,63.9"/>
<path d="M-459.7,66.6c0-0.3,0.4-0.6,0.5-0.5c0.4,0.5,1,1,1.9,1c0.9,0,1.4-0.4,1.4-1c0-0.7-0.7-0.9-1.6-1.1c-1-0.2-2-0.6-2-1.8
	c0-1.1,0.9-1.8,2.3-1.8c1.4,0,2.2,0.7,2.2,1.1c0,0.4-0.4,0.6-0.5,0.6c-0.3-0.5-1-0.8-1.7-0.8c-0.8,0-1.3,0.4-1.3,1
	c0,0.7,0.6,0.8,1.5,1c1.1,0.2,2.1,0.7,2.1,1.9c0,1.2-0.9,1.9-2.4,1.9C-458.8,67.8-459.7,67.1-459.7,66.6"/>
<path d="M-451.6,65.1v-3.3c0-0.3,0.2-0.5,0.4-0.5h0.1c0.3,0,0.4,0.2,0.4,0.5v3.3c0,1.2,0.5,1.8,1.6,1.8c1.1,0,1.6-0.6,1.6-1.8v-3.3
	c0-0.3,0.1-0.5,0.4-0.5h0.2c0.3,0,0.4,0.1,0.4,0.5v3.3c0,1.7-0.9,2.7-2.6,2.7C-450.7,67.8-451.6,66.9-451.6,65.1"/>
<path d="M-442.6,67.3v-5.4c0-0.3,0.1-0.5,0.4-0.5h0.1c0.3,0,0.4,0.2,0.4,0.5v5.4c0,0.3-0.1,0.5-0.4,0.5h-0.1
	C-442.5,67.7-442.6,67.6-442.6,67.3"/>
<path d="M-438.3,61.9L-438.3,61.9c0-0.3,0.2-0.5,0.5-0.5h4.5c0.3,0,0.5,0.1,0.5,0.4v0c0,0.3-0.2,0.4-0.5,0.4h-1.7v5
	c0,0.3-0.2,0.5-0.4,0.5h-0.1c-0.3,0-0.4-0.2-0.4-0.5v-5h-1.7C-438.1,62.3-438.3,62.1-438.3,61.9"/>
<path d="M-429.6,67.1V62c0-0.3,0.2-0.6,0.5-0.6h3.6c0.3,0,0.5,0.2,0.5,0.4v0.1c0,0.3-0.2,0.4-0.5,0.4h-3.2v1.8h2.5
	c0.3,0,0.5,0.1,0.5,0.4v0c0,0.3-0.2,0.4-0.5,0.4h-2.5v1.9h3.2c0.3,0,0.5,0.1,0.5,0.4v0c0,0.3-0.1,0.4-0.5,0.4h-3.7
	C-429.4,67.7-429.6,67.5-429.6,67.1"/>
<path d="M-421.8,66.6c0-0.3,0.4-0.6,0.5-0.5c0.4,0.5,1,1,1.9,1c0.9,0,1.4-0.4,1.4-1c0-0.7-0.7-0.9-1.6-1.1c-1-0.2-2-0.6-2-1.8
	c0-1.1,0.9-1.8,2.3-1.8c1.4,0,2.2,0.7,2.2,1.1c0,0.4-0.4,0.6-0.5,0.6c-0.3-0.5-1-0.8-1.7-0.8c-0.8,0-1.3,0.4-1.3,1
	c0,0.7,0.6,0.8,1.5,1c1.1,0.2,2.1,0.7,2.1,1.9c0,1.2-0.9,1.9-2.4,1.9C-421,67.8-421.8,67.1-421.8,66.6"/>
<path d="M-508.7,33.7c-6.1,0-10.8,4.8-10.8,10.9c0,6.1,4.7,10.8,10.8,10.8c6.1,0,10.9-4.8,10.9-10.9
	C-498,38.4-502.7,33.7-508.7,33.7 M-508.7,52.3c-4.1,0-7.4-3.4-7.4-7.8c0-4.4,3.1-7.8,7.3-7.8c4.2,0,7.4,3.4,7.4,7.8
	C-501.4,49-504.6,52.3-508.7,52.3"/>
<path d="M-525.6,50.4c-0.6,0-1.2,0.2-1.7,0.5c-1.3,1-2.6,1.4-4.4,1.4c-4.1,0-7.3-3.4-7.3-7.8c0-4.4,3.1-7.8,7.1-7.8
	c1,0,1.9,0.2,2.8,0.5c0.5,0.2,0.9,0.5,1.3,0.7c0.2,0.1,0.3,0.2,0.5,0.3c0.4,0.2,0.8,0.4,1.3,0.4c1.1,0,2-0.7,2.4-1l0.2-0.2l-0.2-0.2
	c-1.6-1.7-4-3.6-8.2-3.6c-6,0-10.6,4.8-10.6,10.9c0,6.1,4.7,10.8,10.6,10.8c4.3,0,6.7-2.1,8.4-3.9l0.2-0.3l-0.3-0.2
	C-523.9,50.8-524.6,50.4-525.6,50.4"/>
<path d="M-447,34.6c0.3,0.6,1.3,2.6,3.6,2.6h4.9v17.9h3.2V37.2h7.8v-3h-19.7L-447,34.6z"/>
<path d="M-382.1,33.8c-0.7-0.2-2.9-0.4-4.6,2c-1.7,2.5-4.6,6.7-5.2,7.6c-0.5-0.8-2.5-3.8-4.6-6.8c-1.7-2.4-3.5-2.8-4.4-2.8
	c-0.3,0-0.6,0-0.7,0.1l-0.4,0.1l8.6,12.5V55h3.2v-8.5l8.7-12.6L-382.1,33.8z"/>
<path d="M-478.4,46.2c0,3.6-2.5,6.2-6,6.2c-3.4,0-5.5-2.2-5.5-6v-9.5c0-1.9-1.6-2.7-3.1-2.8l-0.3,0v13c0,5.1,3.1,8.3,8,8.3
	c4,0,5.9-1.7,6.8-3.1c0,1,0.4,1.8,1.1,2.2c0.6,0.4,1.3,0.5,1.7,0.5c0.1,0,0.2,0,0.2,0l0.3,0V34.2h-3.3V46.2z"/>
<path d="M-457.7,33.9c-4,0-5.9,1.6-6.8,3c0-1-0.4-1.8-1.1-2.2c-0.6-0.4-1.3-0.5-1.7-0.5c-0.1,0-0.2,0-0.2,0l-0.3,0v20.9h3.3V43.2
	c0-3.6,2.5-6.2,6-6.2c3.4,0,5.5,2.2,5.5,6v9.3c0,1.9,1.6,2.7,3.1,2.8l0.3,0V42.2C-449.7,37.1-452.8,33.9-457.7,33.9"/>
<path d="M-464.2,21.5c-2.7,0-4-1.4-4-4.3v-2.1l0.7,0c2.7,0,4,1.4,4,4.2l0,2.1L-464.2,21.5z"/>
<path d="M-461.3,15.5v3.2c0,2.5-1.8,4.6-4.4,4.9l0,0c-0.9,0.1-1.2,0.8-1.3,1l-0.1,0.2h0.8c3.5,0,6.2-2.7,6.2-6.1v-3.2H-461.3z"/>
<path d="M-484,80.5V77c0-0.2,0.1-0.4,0.4-0.4h1.4c0.9,0,1.4,0.4,1.4,1.1c0,0.5-0.3,0.8-0.7,0.9c0.6,0.1,0.9,0.5,0.9,1
	c0,0.8-0.5,1.2-1.6,1.2h-1.4C-483.9,80.9-484,80.7-484,80.5 M-482.3,78.5c0.5,0,0.8-0.3,0.8-0.7c0-0.4-0.3-0.6-0.8-0.6h-1v1.3
	H-482.3z M-482.3,80.3c0.7,0,1-0.2,1-0.7c0-0.4-0.3-0.7-0.9-0.7h-1v1.4H-482.3z"/>
<path d="M-478.1,80.6v-1.5l-1.5-2.3c0,0,0.1-0.3,0.4-0.3c0.1,0,0.2,0.1,0.3,0.2l1.1,1.7l1.1-1.7c0.1-0.2,0.2-0.2,0.3-0.2
	c0.3,0,0.4,0.2,0.4,0.3l-1.5,2.3v1.5c0,0.2-0.1,0.3-0.3,0.3h-0.1C-478,80.9-478.1,80.8-478.1,80.6"/>
<path d="M-472.2,78.8c0-1.3,0.9-2.2,2.2-2.2c1.1,0,1.6,0.6,1.6,0.9c0,0.3-0.4,0.4-0.4,0.4c-0.2-0.4-0.7-0.7-1.2-0.7
	c-0.9,0-1.5,0.6-1.5,1.6c0,0.9,0.6,1.6,1.5,1.6c0.6,0,1-0.3,1.2-0.7c0,0,0.4,0,0.4,0.4c0,0.3-0.6,1-1.7,1
	C-471.4,81-472.2,80.1-472.2,78.8"/>
<path d="M-464.2,79.6h-1.7l-0.4,1c-0.1,0.2-0.2,0.3-0.4,0.3c-0.2,0-0.4-0.1-0.4-0.2l1.5-3.9c0.1-0.1,0.2-0.2,0.5-0.2
	c0.3,0,0.4,0.1,0.5,0.2l1.5,3.9c0,0.1-0.2,0.2-0.4,0.2c-0.2,0-0.3-0.1-0.4-0.3L-464.2,79.6z M-465.7,79.1h1.4l-0.7-1.8L-465.7,79.1z
	"/>
<path d="M-459,80.7l-1.2-1.4h-0.5v1.4c0,0.2-0.1,0.3-0.3,0.3h-0.1c-0.2,0-0.3-0.1-0.3-0.3V77c0-0.2,0.1-0.4,0.4-0.4h1.2
	c1,0,1.6,0.4,1.6,1.3c0,0.7-0.4,1.2-1.3,1.2l1.2,1.5c0,0-0.1,0.3-0.4,0.3C-458.8,80.9-458.9,80.8-459,80.7 M-460.7,78.7h0.9
	c0.6,0,0.9-0.3,0.9-0.7c0-0.5-0.3-0.7-0.9-0.7h-0.9V78.7z"/>
<path d="M-456.5,80.5v-3.6c0-0.2,0.1-0.3,0.3-0.3h0.1c0.2,0,0.3,0.1,0.3,0.3v3.4h1.8c0.2,0,0.3,0.1,0.3,0.3v0c0,0.2-0.1,0.3-0.3,0.3
	h-2.2C-456.3,80.9-456.5,80.7-456.5,80.5"/>
<path d="M-452.2,80.1c0-0.2,0.3-0.4,0.3-0.4c0.2,0.4,0.7,0.6,1.3,0.6c0.6,0,0.9-0.2,0.9-0.7c0-0.5-0.5-0.6-1.1-0.7
	c-0.7-0.2-1.3-0.4-1.3-1.2c0-0.7,0.6-1.2,1.5-1.2c0.9,0,1.5,0.4,1.5,0.8c0,0.2-0.3,0.4-0.3,0.4c-0.2-0.3-0.6-0.6-1.1-0.6
	c-0.5,0-0.9,0.3-0.9,0.6c0,0.5,0.4,0.5,1,0.7c0.7,0.2,1.4,0.4,1.4,1.3c0,0.8-0.6,1.3-1.6,1.3C-451.7,81-452.2,80.5-452.2,80.1"/>
<path d="M-447.9,78.8c0-1.3,0.9-2.2,2.1-2.2c1.3,0,2.1,0.9,2.1,2.2c0,1.3-0.9,2.2-2.1,2.2C-447,81-447.9,80.1-447.9,78.8
	 M-444.3,78.8c0-0.9-0.6-1.6-1.5-1.6s-1.5,0.7-1.5,1.6c0,0.9,0.6,1.6,1.5,1.6C-444.9,80.4-444.3,79.7-444.3,78.8"/>
<path d="M-442.2,80.6V77c0-0.2,0.1-0.4,0.3-0.4h0.1c0.2,0,0.3,0.1,0.4,0.3l2.1,3v-2.9c0-0.2,0.1-0.3,0.3-0.3h0.1
	c0.2,0,0.3,0.1,0.3,0.3v3.6c0,0.2-0.1,0.4-0.3,0.4h-0.1c-0.2,0-0.3-0.1-0.4-0.2l-2.2-3.1v3c0,0.2-0.1,0.3-0.3,0.3h-0.1
	C-442.1,80.9-442.2,80.8-442.2,80.6"/>
<rect x="-497.1" y="72.2" width="71.7" height="0.2"/>
<path d="M-437.3,77.8c0-0.1,0.1-0.1,0.1-0.1c0.1,0.1,0.2,0.2,0.4,0.2c0.2,0,0.3-0.1,0.3-0.2c0-0.2-0.2-0.2-0.3-0.2
	c-0.2,0-0.4-0.1-0.4-0.4c0-0.2,0.2-0.4,0.5-0.4c0.3,0,0.5,0.1,0.5,0.2c0,0.1-0.1,0.1-0.1,0.1c-0.1-0.1-0.2-0.2-0.4-0.2
	c-0.2,0-0.3,0.1-0.3,0.2c0,0.1,0.1,0.2,0.3,0.2c0.2,0.1,0.5,0.1,0.5,0.4c0,0.3-0.2,0.4-0.5,0.4C-437.2,78-437.3,77.9-437.3,77.8"/>
<path d="M-435.9,77.9v-1.2c0-0.1,0-0.1,0.1-0.1h0.1c0.1,0,0.1,0,0.1,0.1l0.3,0.7l0.3-0.7c0-0.1,0.1-0.1,0.1-0.1h0.1
	c0.1,0,0.1,0,0.1,0.1v1.2c0,0.1,0,0.1-0.1,0.1h0c-0.1,0-0.1,0-0.1-0.1v-1l-0.3,0.7c0,0.1,0,0.1-0.1,0.1c-0.1,0-0.1,0-0.1-0.1
	l-0.3-0.7v1c0,0.1,0,0.1-0.1,0.1L-435.9,77.9C-435.9,78-435.9,78-435.9,77.9"/>
<path d="M-455.6,1c-0.4,0-0.8,0-1.3,0c-1.4,0-3.4,0.1-5.1,0.6c1.1,1.1,1.8,2.6,1.8,4.3v8.6c2.8-0.3,5-3.2,5-6.1h0V1
	C-455.2,1-455.5,1-455.6,1"/>
<path d="M-464.1,1.5c-0.6-0.3-1.4-0.5-2.1-0.5c0,0-0.1,0-0.2,0v3C-465.8,3-465,2.2-464.1,1.5"/>
<path d="M-461.7,4.2L-461.7,4.2c-0.3-0.8-0.8-1.4-1.4-2c-2,1.2-3.3,3.3-3.3,5.7h0V9h0c0,2.9,2.2,5.3,5,5.5V6
	C-461.3,5.3-461.5,4.7-461.7,4.2"/>
<path d="M-403.2,52.2c-0.2,0.1-1.3,0.6-2.3,0.6c-2.6,0-3.8-2.1-5.3-4.3c-0.2-0.3-0.4-0.6-0.7-0.9c-0.2-0.3-0.4-0.6-0.7-0.9h0.1
	c2.8-0.1,3.7-1,4.5-1.8l0.1-0.1c1.1-1.1,1.7-2.6,1.7-4.3c0-1.9-0.8-3.5-2.1-4.7c-1.4-1.1-3.3-1.7-5.5-1.7h-9v21.1h3.2l0-18.1h5.7
	c1.5,0,2.7,0.3,3.5,1c0.8,0.6,1.2,1.5,1.2,2.5c0,1.1-0.4,2-1.3,2.7c-0.8,0.7-2,1-3.4,1h-2.7c0,0-0.5,0-0.6,0c-0.1,0-0.1,0-0.1,0
	c-0.2,0-0.4,0.2-0.5,0.4c-0.1,0.2,0,0.4,0.2,0.6c1.4,1.1,2.5,2.6,3.5,4.1c0.3,0.4,0.6,0.8,0.8,1.2c1.6,2.4,3.2,4.9,6.3,4.9h0.1
	C-404.7,55.4-403.2,54-403.2,52.2"/>
<path d="M-271,67.3v-5.4c0-0.3,0.1-0.5,0.4-0.5h0.1c0.3,0,0.4,0.2,0.4,0.5v5.4c0,0.3-0.1,0.5-0.4,0.5h-0.1
	C-270.9,67.7-271,67.6-271,67.3"/>
<path d="M-266.2,67.3v-5.3c0-0.3,0.2-0.6,0.5-0.6h0.2c0.3,0,0.4,0.1,0.6,0.4l3.1,4.4v-4.3c0-0.3,0.1-0.5,0.4-0.5h0.1
	c0.3,0,0.4,0.2,0.4,0.5v5.3c0,0.3-0.2,0.6-0.5,0.6h-0.1c-0.3,0-0.4-0.1-0.5-0.3l-3.3-4.6v4.5c0,0.3-0.1,0.5-0.4,0.5h-0.1
	C-266,67.7-266.2,67.6-266.2,67.3"/>
<path d="M-257.1,67.3v-5.3c0-0.3,0.2-0.6,0.5-0.6h0.2c0.3,0,0.4,0.1,0.6,0.4l3.1,4.4v-4.3c0-0.3,0.1-0.5,0.4-0.5h0.1
	c0.3,0,0.4,0.2,0.4,0.5v5.3c0,0.3-0.2,0.6-0.5,0.6h-0.1c-0.3,0-0.4-0.1-0.5-0.3l-3.3-4.6v4.5c0,0.3-0.1,0.5-0.4,0.5h-0.1
	C-257,67.7-257.1,67.6-257.1,67.3"/>
<path d="M-248.4,66.6c0-0.3,0.4-0.6,0.5-0.5c0.4,0.5,1,1,1.9,1c0.9,0,1.4-0.4,1.4-1c0-0.7-0.7-0.9-1.6-1.1c-1-0.2-2-0.6-2-1.8
	c0-1.1,0.9-1.8,2.3-1.8c1.4,0,2.2,0.7,2.2,1.1c0,0.4-0.4,0.6-0.5,0.6c-0.3-0.5-1-0.8-1.7-0.8c-0.8,0-1.3,0.4-1.3,1
	c0,0.7,0.6,0.8,1.5,1c1.1,0.2,2.1,0.7,2.1,1.9c0,1.2-0.9,1.9-2.4,1.9C-247.6,67.8-248.4,67.1-248.4,66.6"/>
<path d="M-236.6,65.9c0-0.9,0.6-1.5,1.6-1.8c-0.3-0.3-0.6-0.8-0.6-1.3c0-0.9,0.7-1.6,1.8-1.6c1,0,1.6,0.6,1.6,1.5
	c0,0.7-0.5,1.3-1.5,1.5l1.5,1.3c0.2-0.4,0.3-0.8,0.5-1.3c0.1-0.4,0.3-0.5,0.6-0.5c0.3,0,0.4,0.2,0.4,0.3c-0.2,0.8-0.5,1.5-0.9,2.1
	l1.3,1.2c0,0-0.1,0.4-0.5,0.4c-0.2,0-0.4,0-0.6-0.3l-0.7-0.6c-0.6,0.6-1.3,1-2.2,1C-235.7,67.8-236.6,67.1-236.6,65.9 M-232.7,66.3
	l-1.9-1.7c-0.7,0.2-1.1,0.6-1.1,1.3c0,0.8,0.6,1.2,1.4,1.2C-233.6,67.1-233.1,66.7-232.7,66.3 M-234.2,63.9c0.8-0.2,1.2-0.5,1.2-1.1
	c0-0.5-0.3-0.8-0.8-0.8c-0.6,0-0.8,0.4-0.8,0.8C-234.7,63.2-234.5,63.5-234.2,63.9"/>
<path d="M-223.5,66.6c0-0.3,0.4-0.6,0.5-0.5c0.4,0.5,1,1,1.9,1c0.9,0,1.4-0.4,1.4-1c0-0.7-0.7-0.9-1.6-1.1c-1-0.2-2-0.6-2-1.8
	c0-1.1,0.9-1.8,2.3-1.8c1.4,0,2.2,0.7,2.2,1.1c0,0.4-0.4,0.6-0.5,0.6c-0.3-0.5-1-0.8-1.7-0.8c-0.8,0-1.3,0.4-1.3,1
	c0,0.7,0.6,0.8,1.5,1c1.1,0.2,2.1,0.7,2.1,1.9c0,1.2-0.9,1.9-2.4,1.9C-222.7,67.8-223.5,67.1-223.5,66.6"/>
<path d="M-215.4,65.1v-3.3c0-0.3,0.2-0.5,0.4-0.5h0.1c0.3,0,0.4,0.2,0.4,0.5v3.3c0,1.2,0.5,1.8,1.6,1.8c1.1,0,1.6-0.6,1.6-1.8v-3.3
	c0-0.3,0.1-0.5,0.4-0.5h0.2c0.3,0,0.4,0.1,0.4,0.5v3.3c0,1.7-0.9,2.7-2.6,2.7C-214.5,67.8-215.4,66.9-215.4,65.1"/>
<path d="M-206.5,67.3v-5.4c0-0.3,0.1-0.5,0.4-0.5h0.1c0.3,0,0.4,0.2,0.4,0.5v5.4c0,0.3-0.1,0.5-0.4,0.5h-0.1
	C-206.4,67.7-206.5,67.6-206.5,67.3"/>
<path d="M-202.1,61.9L-202.1,61.9c0-0.3,0.2-0.5,0.5-0.5h4.5c0.3,0,0.5,0.1,0.5,0.4v0c0,0.3-0.2,0.4-0.5,0.4h-1.7v5
	c0,0.3-0.2,0.5-0.4,0.5h-0.1c-0.3,0-0.4-0.2-0.4-0.5v-5h-1.7C-201.9,62.3-202.1,62.1-202.1,61.9"/>
<path d="M-193.4,67.1V62c0-0.3,0.2-0.6,0.5-0.6h3.6c0.3,0,0.5,0.2,0.5,0.4v0.1c0,0.3-0.2,0.4-0.5,0.4h-3.2v1.8h2.5
	c0.3,0,0.5,0.1,0.5,0.4v0c0,0.3-0.2,0.4-0.5,0.4h-2.5v1.9h3.2c0.3,0,0.5,0.1,0.5,0.4v0c0,0.3-0.1,0.4-0.5,0.4h-3.7
	C-193.2,67.7-193.4,67.5-193.4,67.1"/>
<path d="M-185.7,66.6c0-0.3,0.4-0.6,0.5-0.5c0.4,0.5,1,1,1.9,1c0.9,0,1.4-0.4,1.4-1c0-0.7-0.7-0.9-1.6-1.1c-1-0.2-2-0.6-2-1.8
	c0-1.1,0.9-1.8,2.3-1.8c1.4,0,2.2,0.7,2.2,1.1c0,0.4-0.4,0.6-0.5,0.6c-0.3-0.5-1-0.8-1.7-0.8c-0.8,0-1.3,0.4-1.3,1
	c0,0.7,0.6,0.8,1.5,1c1.1,0.2,2.1,0.7,2.1,1.9c0,1.2-0.9,1.9-2.4,1.9C-184.8,67.8-185.7,67.1-185.7,66.6"/>
<path d="M-272.6,33.7c-6.1,0-10.8,4.8-10.8,10.9c0,6.1,4.7,10.8,10.8,10.8c6.1,0,10.9-4.8,10.9-10.9
	C-261.8,38.4-266.5,33.7-272.6,33.7 M-272.6,52.3c-4.1,0-7.4-3.4-7.4-7.8c0-4.4,3.1-7.8,7.3-7.8c4.2,0,7.4,3.4,7.4,7.8
	C-265.3,49-268.4,52.3-272.6,52.3"/>
<path d="M-289.4,50.4c-0.6,0-1.2,0.2-1.7,0.5c-1.3,1-2.6,1.4-4.4,1.4c-4.1,0-7.3-3.4-7.3-7.8c0-4.4,3.1-7.8,7.1-7.8
	c1,0,1.9,0.2,2.8,0.5c0.5,0.2,0.9,0.5,1.3,0.7c0.2,0.1,0.3,0.2,0.5,0.3c0.4,0.2,0.8,0.4,1.3,0.4c1.1,0,2-0.7,2.4-1l0.2-0.2l-0.2-0.2
	c-1.6-1.7-4-3.6-8.2-3.6c-6,0-10.6,4.8-10.6,10.9c0,6.1,4.7,10.8,10.6,10.8c4.3,0,6.7-2.1,8.4-3.9l0.2-0.3l-0.3-0.2
	C-287.7,50.8-288.5,50.4-289.4,50.4"/>
<path d="M-210.8,34.6c0.3,0.6,1.3,2.6,3.6,2.6h4.9v17.9h3.2V37.2h7.8v-3H-211L-210.8,34.6z"/>
<path d="M-146,33.8c-0.7-0.2-2.9-0.4-4.6,2c-1.7,2.5-4.6,6.7-5.2,7.6c-0.5-0.8-2.5-3.8-4.6-6.8c-1.7-2.4-3.5-2.8-4.4-2.8
	c-0.3,0-0.6,0-0.7,0.1L-166,34l8.6,12.5V55h3.2v-8.5l8.7-12.6L-146,33.8z"/>
<path d="M-242.3,46.2c0,3.6-2.5,6.2-6,6.2c-3.4,0-5.5-2.2-5.5-6v-9.5c0-1.9-1.6-2.7-3.1-2.8l-0.3,0v13c0,5.1,3.1,8.3,8,8.3
	c4,0,5.9-1.7,6.8-3.1c0,1,0.4,1.8,1.1,2.2c0.6,0.4,1.3,0.5,1.7,0.5c0.1,0,0.1,0,0.2,0l0.3,0V34.2h-3.3V46.2z"/>
<path d="M-221.5,33.9c-4,0-5.9,1.6-6.8,3c0-1-0.4-1.8-1.1-2.2c-0.6-0.4-1.3-0.5-1.7-0.5c-0.1,0-0.2,0-0.2,0l-0.3,0v20.9h3.3V43.2
	c0-3.6,2.5-6.2,6-6.2c3.4,0,5.5,2.2,5.5,6v9.3c0,1.9,1.6,2.7,3.1,2.8l0.3,0V42.2C-213.5,37.1-216.6,33.9-221.5,33.9"/>
<path d="M-228.1,21.5c-2.7,0-4-1.4-4-4.3v-2.1l0.7,0c2.7,0,4,1.4,4,4.2l0,2.1L-228.1,21.5z"/>
<path d="M-225.2,15.5v3.2c0,2.5-1.8,4.6-4.4,4.9l0,0c-0.9,0.1-1.2,0.8-1.3,1l-0.1,0.2h0.8c3.5,0,6.2-2.7,6.2-6.1v-3.2H-225.2z"/>
<path d="M-247.9,80.5V77c0-0.2,0.1-0.4,0.4-0.4h1.4c0.9,0,1.4,0.4,1.4,1.1c0,0.5-0.3,0.8-0.7,0.9c0.6,0.1,0.9,0.5,0.9,1
	c0,0.8-0.5,1.2-1.6,1.2h-1.4C-247.7,80.9-247.9,80.7-247.9,80.5 M-246.2,78.5c0.5,0,0.8-0.3,0.8-0.7c0-0.4-0.3-0.6-0.8-0.6h-1v1.3
	H-246.2z M-246.2,80.3c0.7,0,1-0.2,1-0.7c0-0.4-0.3-0.7-0.9-0.7h-1v1.4H-246.2z"/>
<path d="M-242,80.6v-1.5l-1.5-2.3c0,0,0.1-0.3,0.4-0.3c0.1,0,0.2,0.1,0.3,0.2l1.1,1.7l1.1-1.7c0.1-0.2,0.2-0.2,0.3-0.2
	c0.3,0,0.4,0.2,0.4,0.3l-1.5,2.3v1.5c0,0.2-0.1,0.3-0.3,0.3h-0.1C-241.9,80.9-242,80.8-242,80.6"/>
<path d="M-236.1,78.8c0-1.3,0.9-2.2,2.2-2.2c1.1,0,1.6,0.6,1.6,0.9c0,0.3-0.4,0.4-0.4,0.4c-0.2-0.4-0.7-0.7-1.2-0.7
	c-0.9,0-1.5,0.6-1.5,1.6c0,0.9,0.6,1.6,1.5,1.6c0.6,0,1-0.3,1.2-0.7c0,0,0.4,0,0.4,0.4c0,0.3-0.6,1-1.7,1
	C-235.2,81-236.1,80.1-236.1,78.8"/>
<path d="M-228,79.6h-1.7l-0.4,1c-0.1,0.2-0.2,0.3-0.4,0.3c-0.2,0-0.4-0.1-0.4-0.2l1.5-3.9c0.1-0.1,0.2-0.2,0.5-0.2
	c0.3,0,0.4,0.1,0.5,0.2l1.5,3.9c0,0.1-0.2,0.2-0.4,0.2c-0.2,0-0.3-0.1-0.4-0.3L-228,79.6z M-229.6,79.1h1.4l-0.7-1.8L-229.6,79.1z"
	/>
<path d="M-222.9,80.7l-1.2-1.4h-0.5v1.4c0,0.2-0.1,0.3-0.3,0.3h-0.1c-0.2,0-0.3-0.1-0.3-0.3V77c0-0.2,0.1-0.4,0.4-0.4h1.2
	c1,0,1.6,0.4,1.6,1.3c0,0.7-0.4,1.2-1.3,1.2l1.2,1.5c0,0-0.1,0.3-0.4,0.3C-222.6,80.9-222.8,80.8-222.9,80.7 M-224.5,78.7h0.9
	c0.6,0,0.9-0.3,0.9-0.7c0-0.5-0.3-0.7-0.9-0.7h-0.9V78.7z"/>
<path d="M-220.3,80.5v-3.6c0-0.2,0.1-0.3,0.3-0.3h0.1c0.2,0,0.3,0.1,0.3,0.3v3.4h1.8c0.2,0,0.3,0.1,0.3,0.3v0c0,0.2-0.1,0.3-0.3,0.3
	h-2.2C-220.2,80.9-220.3,80.7-220.3,80.5"/>
<path d="M-216.1,80.1c0-0.2,0.3-0.4,0.3-0.4c0.2,0.4,0.7,0.6,1.3,0.6c0.6,0,0.9-0.2,0.9-0.7c0-0.5-0.5-0.6-1.1-0.7
	c-0.7-0.2-1.3-0.4-1.3-1.2c0-0.7,0.6-1.2,1.5-1.2c0.9,0,1.5,0.4,1.5,0.8c0,0.2-0.3,0.4-0.3,0.4c-0.2-0.3-0.6-0.6-1.1-0.6
	c-0.5,0-0.9,0.3-0.9,0.6c0,0.5,0.4,0.5,1,0.7c0.7,0.2,1.4,0.4,1.4,1.3c0,0.8-0.6,1.3-1.6,1.3C-215.5,81-216.1,80.5-216.1,80.1"/>
<path d="M-211.7,78.8c0-1.3,0.9-2.2,2.1-2.2c1.3,0,2.1,0.9,2.1,2.2c0,1.3-0.9,2.2-2.1,2.2C-210.8,81-211.7,80.1-211.7,78.8
	 M-208.1,78.8c0-0.9-0.6-1.6-1.5-1.6s-1.5,0.7-1.5,1.6c0,0.9,0.6,1.6,1.5,1.6C-208.7,80.4-208.1,79.7-208.1,78.8"/>
<path d="M-206.1,80.6V77c0-0.2,0.1-0.4,0.3-0.4h0.1c0.2,0,0.3,0.1,0.4,0.3l2.1,3v-2.9c0-0.2,0.1-0.3,0.3-0.3h0.1
	c0.2,0,0.3,0.1,0.3,0.3v3.6c0,0.2-0.1,0.4-0.3,0.4h-0.1c-0.2,0-0.3-0.1-0.4-0.2l-2.2-3.1v3c0,0.2-0.1,0.3-0.3,0.3h-0.1
	C-206,80.9-206.1,80.8-206.1,80.6"/>
<rect x="-261" y="72.2" width="71.7" height="0.2"/>
<path d="M-201.2,77.8c0-0.1,0.1-0.1,0.1-0.1c0.1,0.1,0.2,0.2,0.4,0.2c0.2,0,0.3-0.1,0.3-0.2c0-0.2-0.2-0.2-0.3-0.2
	c-0.2,0-0.4-0.1-0.4-0.4c0-0.2,0.2-0.4,0.5-0.4c0.3,0,0.5,0.1,0.5,0.2c0,0.1-0.1,0.1-0.1,0.1c-0.1-0.1-0.2-0.2-0.4-0.2
	c-0.2,0-0.3,0.1-0.3,0.2c0,0.1,0.1,0.2,0.3,0.2c0.2,0.1,0.5,0.1,0.5,0.4c0,0.3-0.2,0.4-0.5,0.4C-201,78-201.2,77.9-201.2,77.8"/>
<path d="M-199.7,77.9v-1.2c0-0.1,0-0.1,0.1-0.1h0.1c0.1,0,0.1,0,0.1,0.1l0.3,0.7l0.3-0.7c0-0.1,0.1-0.1,0.1-0.1h0.1
	c0.1,0,0.1,0,0.1,0.1v1.2c0,0.1,0,0.1-0.1,0.1h0c-0.1,0-0.1,0-0.1-0.1v-1l-0.3,0.7c0,0.1,0,0.1-0.1,0.1c-0.1,0-0.1,0-0.1-0.1
	l-0.3-0.7v1c0,0.1,0,0.1-0.1,0.1L-199.7,77.9C-199.7,78-199.7,78-199.7,77.9"/>
<path d="M-219.4,1c-0.4,0-0.8,0-1.3,0c-1.4,0-3.4,0.1-5.1,0.6c1.1,1.1,1.8,2.6,1.8,4.3v8.6c2.8-0.3,5-3.2,5-6.1h0V1
	C-219.1,1-219.3,1-219.4,1"/>
<path d="M-227.9,1.5c-0.6-0.3-1.4-0.5-2.1-0.5c0,0-0.1,0-0.2,0v3C-229.6,3-228.9,2.2-227.9,1.5"/>
<path d="M-225.5,4.2L-225.5,4.2c-0.3-0.8-0.8-1.4-1.4-2c-2,1.2-3.3,3.3-3.3,5.7h0V9h0c0,2.9,2.2,5.3,5,5.5V6
	C-225.2,5.3-225.3,4.7-225.5,4.2"/>
<path d="M-167,52.2c-0.2,0.1-1.3,0.6-2.3,0.6c-2.6,0-3.8-2.1-5.3-4.3c-0.2-0.3-0.4-0.6-0.7-0.9c-0.2-0.3-0.4-0.6-0.7-0.9h0.1
	c2.8-0.1,3.7-1,4.5-1.8l0.1-0.1c1.1-1.1,1.7-2.6,1.7-4.3c0-1.9-0.8-3.5-2.1-4.7c-1.4-1.1-3.3-1.7-5.5-1.7h-9v21.1h3.2l0-18.1h5.7
	c1.5,0,2.7,0.3,3.5,1c0.8,0.6,1.2,1.5,1.2,2.5c0,1.1-0.4,2-1.3,2.7c-0.8,0.7-2,1-3.4,1h-2.7c0,0-0.5,0-0.6,0c-0.1,0-0.1,0-0.1,0
	c-0.2,0-0.4,0.2-0.5,0.4c-0.1,0.2,0,0.4,0.2,0.6c1.4,1.1,2.5,2.6,3.5,4.1c0.3,0.4,0.6,0.8,0.8,1.2c1.6,2.4,3.2,4.9,6.3,4.9h0.1
	C-168.6,55.4-167.1,54-167,52.2"/>
<path fill="#FFFFFF" d="M133.6,33.6V30c0-0.2,0.1-0.4,0.4-0.4h1.4c1,0,1.5,0.4,1.5,1.1c0,0.5-0.3,0.8-0.8,0.9
	c0.6,0.2,0.9,0.6,0.9,1.1c0,0.8-0.5,1.2-1.7,1.2H134C133.7,33.9,133.6,33.8,133.6,33.6 M135.3,31.5c0.5,0,0.8-0.3,0.8-0.7
	c0-0.4-0.3-0.7-0.9-0.7h-1v1.3H135.3z M135.3,33.4c0.7,0,1-0.2,1-0.7c0-0.5-0.3-0.7-1-0.7h-1.1v1.4H135.3z"/>
<path fill="#FFFFFF" d="M139.6,33.7v-1.5l-1.5-2.3c0,0,0.1-0.3,0.4-0.3c0.1,0,0.2,0.1,0.3,0.2l1.1,1.8l1.1-1.8
	c0.1-0.2,0.2-0.2,0.3-0.2c0.3,0,0.4,0.2,0.4,0.3l-1.5,2.3v1.5c0,0.2-0.1,0.3-0.3,0.3h-0.1C139.7,34,139.6,33.9,139.6,33.7"/>
<path fill="#FFFFFF" d="M145.7,31.8c0-1.3,0.9-2.3,2.2-2.3c1.1,0,1.6,0.6,1.6,0.9c0,0.3-0.4,0.4-0.4,0.4c-0.3-0.4-0.7-0.7-1.2-0.7
	c-0.9,0-1.5,0.7-1.5,1.6c0,1,0.6,1.6,1.5,1.6c0.6,0,1.1-0.3,1.3-0.8c0,0,0.4,0,0.4,0.4c0,0.3-0.6,1-1.7,1
	C146.6,34,145.7,33.1,145.7,31.8"/>
<path fill="#FFFFFF" d="M154,32.7h-1.8l-0.4,1c-0.1,0.2-0.2,0.3-0.4,0.3c-0.2,0-0.4-0.1-0.4-0.2l1.6-4c0.1-0.1,0.2-0.2,0.5-0.2
	c0.3,0,0.4,0.1,0.5,0.2l1.6,4c0,0.1-0.2,0.2-0.4,0.2c-0.2,0-0.3-0.1-0.4-0.3L154,32.7z M152.4,32.1h1.4l-0.7-1.9L152.4,32.1z"/>
<path fill="#FFFFFF" d="M159.3,33.7l-1.2-1.5h-0.5v1.4c0,0.2-0.1,0.3-0.3,0.3h-0.1c-0.2,0-0.3-0.1-0.3-0.4V30c0-0.2,0.1-0.4,0.4-0.4
	h1.2c1.1,0,1.6,0.4,1.6,1.3c0,0.7-0.5,1.2-1.3,1.3l1.3,1.5c0,0-0.1,0.3-0.4,0.3C159.6,34,159.5,33.9,159.3,33.7 M157.6,31.7h0.9
	c0.6,0,0.9-0.3,0.9-0.8c0-0.5-0.3-0.8-1-0.8h-0.9V31.7z"/>
<path fill="#FFFFFF" d="M162,33.6v-3.7c0-0.2,0.1-0.3,0.3-0.3h0.1c0.2,0,0.3,0.1,0.3,0.3v3.5h1.9c0.2,0,0.3,0.1,0.3,0.3v0
	c0,0.2-0.1,0.3-0.3,0.3h-2.2C162.1,33.9,162,33.8,162,33.6"/>
<path fill="#FFFFFF" d="M166.3,33.2c0-0.2,0.3-0.4,0.3-0.4c0.2,0.4,0.7,0.7,1.3,0.7c0.6,0,1-0.2,1-0.7c0-0.5-0.5-0.6-1.1-0.7
	c-0.7-0.2-1.4-0.4-1.4-1.3c0-0.7,0.6-1.3,1.6-1.3c1,0,1.5,0.5,1.5,0.8c0,0.2-0.3,0.4-0.3,0.4c-0.2-0.3-0.7-0.6-1.2-0.6
	c-0.5,0-0.9,0.3-0.9,0.7c0,0.5,0.4,0.6,1,0.7c0.7,0.2,1.5,0.5,1.5,1.3c0,0.8-0.6,1.3-1.6,1.3C166.9,34,166.3,33.5,166.3,33.2"/>
<path fill="#FFFFFF" d="M170.8,31.8c0-1.3,0.9-2.3,2.2-2.3c1.3,0,2.2,0.9,2.2,2.3c0,1.3-0.9,2.3-2.2,2.3
	C171.7,34,170.8,33.1,170.8,31.8 M174.6,31.8c0-1-0.6-1.7-1.5-1.7c-0.9,0-1.5,0.7-1.5,1.7c0,1,0.6,1.7,1.5,1.7
	C173.9,33.4,174.6,32.7,174.6,31.8"/>
<path fill="#FFFFFF" d="M176.7,33.7v-3.7c0-0.2,0.1-0.4,0.3-0.4h0.1c0.2,0,0.3,0.1,0.4,0.3l2.2,3.1v-3c0-0.2,0.1-0.3,0.3-0.3h0.1
	c0.2,0,0.3,0.1,0.3,0.3v3.7c0,0.2-0.1,0.4-0.3,0.4H180c-0.2,0-0.3-0.1-0.4-0.2l-2.3-3.2v3.1c0,0.2-0.1,0.3-0.3,0.3h-0.1
	C176.7,34,176.7,33.9,176.7,33.7"/>
<path fill="#FFFFFF" d="M181.7,30.7c0-0.1,0.1-0.1,0.1-0.1c0.1,0.1,0.2,0.2,0.4,0.2c0.2,0,0.3-0.1,0.3-0.2c0-0.2-0.2-0.2-0.3-0.2
	c-0.2-0.1-0.4-0.1-0.4-0.4c0-0.2,0.2-0.4,0.5-0.4c0.3,0,0.5,0.1,0.5,0.2c0,0.1-0.1,0.1-0.1,0.1c-0.1-0.1-0.2-0.2-0.4-0.2
	c-0.2,0-0.3,0.1-0.3,0.2c0,0.2,0.1,0.2,0.3,0.2c0.2,0.1,0.5,0.1,0.5,0.4c0,0.3-0.2,0.4-0.5,0.4C181.9,31,181.7,30.8,181.7,30.7"/>
<path fill="#FFFFFF" d="M183.2,30.9v-1.2c0-0.1,0-0.1,0.1-0.1h0.1c0.1,0,0.1,0,0.1,0.1l0.3,0.7l0.3-0.7c0-0.1,0.1-0.1,0.1-0.1h0.1
	c0.1,0,0.1,0,0.1,0.1v1.2c0,0.1,0,0.1-0.1,0.1h0c-0.1,0-0.1,0-0.1-0.1v-1l-0.3,0.7c0,0.1,0,0.1-0.1,0.1c-0.1,0-0.1,0-0.1-0.1
	l-0.3-0.7v1c0,0.1,0,0.1-0.1,0.1h0C183.2,31,183.2,31,183.2,30.9"/>
<path fill="#FFFFFF" d="M29.8,34.8v-5.6c0-0.3,0.2-0.5,0.4-0.5h0.1c0.3,0,0.5,0.2,0.5,0.5v5.6c0,0.3-0.2,0.5-0.5,0.5h-0.1
	C29.9,35.2,29.8,35.1,29.8,34.8"/>
<path fill="#FFFFFF" d="M34.8,34.8v-5.5c0-0.4,0.2-0.6,0.5-0.6h0.2c0.3,0,0.4,0.1,0.6,0.4l3.2,4.6v-4.5c0-0.3,0.1-0.5,0.4-0.5h0.1
	c0.3,0,0.4,0.2,0.4,0.5v5.5c0,0.4-0.2,0.6-0.5,0.6h-0.1c-0.3,0-0.4-0.1-0.6-0.3l-3.4-4.8v4.6c0,0.3-0.1,0.5-0.4,0.5h-0.1
	C34.9,35.2,34.8,35.1,34.8,34.8"/>
<path fill="#FFFFFF" d="M44.1,34.8v-5.5c0-0.4,0.2-0.6,0.5-0.6h0.2c0.3,0,0.4,0.1,0.6,0.4l3.2,4.6v-4.5c0-0.3,0.1-0.5,0.4-0.5h0.1
	c0.3,0,0.4,0.2,0.4,0.5v5.5c0,0.4-0.2,0.6-0.5,0.6H49c-0.3,0-0.4-0.1-0.6-0.3l-3.4-4.8v4.6c0,0.3-0.1,0.5-0.4,0.5h-0.1
	C44.2,35.2,44.1,35.1,44.1,34.8"/>
<path fill="#FFFFFF" d="M53.1,34c0-0.3,0.4-0.6,0.5-0.6c0.4,0.5,1.1,1,2,1c0.9,0,1.4-0.4,1.4-1c0-0.7-0.8-0.9-1.6-1.1
	c-1-0.2-2-0.6-2-1.9c0-1.1,1-1.9,2.3-1.9c1.4,0,2.2,0.7,2.2,1.2c0,0.4-0.5,0.6-0.5,0.6c-0.3-0.5-1-0.9-1.7-0.9c-0.8,0-1.3,0.4-1.3,1
	c0,0.7,0.6,0.8,1.5,1c1.1,0.3,2.2,0.7,2.2,1.9c0,1.2-0.9,1.9-2.4,1.9C54,35.3,53.1,34.6,53.1,34"/>
<path fill="#FFFFFF" d="M65.2,33.4c0-1,0.6-1.6,1.6-1.9c-0.3-0.4-0.6-0.8-0.6-1.3c0-0.9,0.7-1.6,1.8-1.6c1,0,1.7,0.6,1.7,1.5
	c0,0.8-0.5,1.3-1.5,1.6l1.5,1.4c0.2-0.4,0.4-0.8,0.5-1.3c0.1-0.4,0.3-0.6,0.6-0.6c0.3,0,0.5,0.2,0.4,0.3c-0.2,0.8-0.5,1.5-0.9,2.1
	l1.4,1.2c0,0-0.1,0.4-0.6,0.4c-0.2,0-0.4,0-0.7-0.3l-0.7-0.7c-0.6,0.7-1.4,1-2.3,1C66.2,35.3,65.2,34.6,65.2,33.4 M69.3,33.7
	L67.3,32c-0.7,0.2-1.1,0.6-1.1,1.3c0,0.8,0.6,1.3,1.5,1.3C68.3,34.5,68.9,34.2,69.3,33.7 M67.7,31.3c0.8-0.2,1.2-0.6,1.2-1.1
	c0-0.5-0.4-0.8-0.8-0.8c-0.6,0-0.9,0.4-0.9,0.9C67.2,30.6,67.4,30.9,67.7,31.3"/>
<path fill="#FFFFFF" d="M78.8,34c0-0.3,0.4-0.6,0.5-0.6c0.4,0.5,1.1,1,2,1c0.9,0,1.4-0.4,1.4-1c0-0.7-0.8-0.9-1.6-1.1
	c-1-0.2-2-0.6-2-1.9c0-1.1,1-1.9,2.3-1.9c1.4,0,2.2,0.7,2.2,1.2c0,0.4-0.5,0.6-0.5,0.6c-0.3-0.5-1-0.9-1.7-0.9c-0.8,0-1.3,0.4-1.3,1
	c0,0.7,0.6,0.8,1.5,1c1.1,0.3,2.2,0.7,2.2,1.9c0,1.2-0.9,1.9-2.4,1.9C79.6,35.3,78.8,34.6,78.8,34"/>
<path fill="#FFFFFF" d="M87.1,32.6v-3.4c0-0.3,0.2-0.5,0.4-0.5h0.1c0.3,0,0.5,0.2,0.5,0.5v3.4c0,1.2,0.5,1.9,1.6,1.9
	c1.1,0,1.6-0.6,1.6-1.9v-3.4c0-0.3,0.2-0.5,0.4-0.5H92c0.3,0,0.4,0.2,0.4,0.5v3.4c0,1.8-0.9,2.8-2.7,2.8
	C88,35.3,87.1,34.4,87.1,32.6"/>
<path fill="#FFFFFF" d="M96.3,34.8v-5.6c0-0.3,0.2-0.5,0.4-0.5h0.1c0.3,0,0.4,0.2,0.4,0.5v5.6c0,0.3-0.1,0.5-0.4,0.5h-0.1
	C96.4,35.2,96.3,35.1,96.3,34.8"/>
<path fill="#FFFFFF" d="M100.8,29.2L100.8,29.2c0-0.3,0.2-0.5,0.5-0.5h4.6c0.3,0,0.5,0.1,0.5,0.4v0.1c0,0.3-0.2,0.4-0.5,0.4h-1.8
	v5.1c0,0.3-0.2,0.5-0.5,0.5h-0.1c-0.3,0-0.4-0.2-0.4-0.5v-5.1h-1.8C101,29.6,100.8,29.5,100.8,29.2"/>
<path fill="#FFFFFF" d="M109.7,34.6v-5.3c0-0.3,0.2-0.6,0.6-0.6h3.8c0.3,0,0.5,0.2,0.5,0.4v0.1c0,0.3-0.2,0.4-0.5,0.4h-3.3v1.8h2.5
	c0.3,0,0.5,0.1,0.5,0.4v0c0,0.3-0.2,0.4-0.5,0.4h-2.5v2h3.3c0.3,0,0.5,0.1,0.5,0.4v0c0,0.3-0.2,0.5-0.5,0.5h-3.8
	C110,35.2,109.7,35,109.7,34.6"/>
<path fill="#FFFFFF" d="M117.8,34c0-0.3,0.4-0.6,0.5-0.6c0.4,0.5,1.1,1,2,1c0.9,0,1.4-0.4,1.4-1c0-0.7-0.8-0.9-1.6-1.1
	c-1-0.2-2-0.6-2-1.9c0-1.1,1-1.9,2.3-1.9c1.4,0,2.2,0.7,2.2,1.2c0,0.4-0.5,0.6-0.5,0.6c-0.3-0.5-1-0.9-1.7-0.9c-0.8,0-1.3,0.4-1.3,1
	c0,0.7,0.6,0.8,1.5,1c1.1,0.3,2.2,0.7,2.2,1.9c0,1.2-0.9,1.9-2.4,1.9C118.6,35.3,117.8,34.6,117.8,34"/>
<path fill="#FFFFFF" d="M63.2,1.2C56.9,1.2,52,6.2,52,12.5c0,6.2,4.9,11.1,11.1,11.1c6.3,0,11.2-4.9,11.2-11.2
	C74.3,6.1,69.4,1.2,63.2,1.2 M63.2,20.4c-4.3,0-7.6-3.5-7.6-8.1c0-4.6,3.2-8,7.5-8c4.3,0,7.6,3.6,7.6,8.1
	C70.8,17,67.5,20.4,63.2,20.4"/>
<path fill="#FFFFFF" d="M45.8,18.4c-0.6,0-1.2,0.2-1.8,0.6c-1.3,1-2.7,1.4-4.6,1.4c-4.2,0-7.6-3.5-7.6-8.1c0-4.5,3.2-8,7.4-8
	c1,0,2,0.2,2.8,0.6c0.5,0.2,0.9,0.5,1.3,0.8C43.6,5.8,43.8,5.9,44,6c0.4,0.2,0.8,0.4,1.3,0.4c1.1,0,2.1-0.7,2.5-1L48,5.2l-0.2-0.2
	c-1.6-1.7-4.1-3.7-8.5-3.7c-6.1,0-11,4.9-11,11.2c0,6.2,4.8,11.1,11,11.1c4.4,0,6.9-2.1,8.6-4l0.2-0.3l-0.3-0.2
	C47.6,18.9,46.8,18.4,45.8,18.4"/>
<path fill="#FFFFFF" d="M126.9,2.1c0.3,0.6,1.3,2.7,3.7,2.7h5.1v18.4h3.3V4.8h8V1.7h-20.3L126.9,2.1z"/>
<path fill="#FFFFFF" d="M193.7,1.4c-0.7-0.2-3-0.4-4.7,2.1c-1.8,2.6-4.7,6.9-5.4,7.9c-0.6-0.8-2.6-3.9-4.8-7
	c-1.7-2.5-3.6-2.9-4.6-2.9c-0.3,0-0.6,0-0.7,0.1l-0.4,0.1l8.8,12.9v8.8h3.3v-8.8l8.9-13L193.7,1.4z"/>
<path fill="#FFFFFF" d="M94.5,14.1c0,3.7-2.6,6.4-6.1,6.4c-3.5,0-5.7-2.3-5.7-6.2V4.6c0-1.9-1.6-2.8-3.2-2.9l-0.3,0v13.5
	c0,5.3,3.2,8.6,8.2,8.6c4.1,0,6.1-1.8,7-3.2c0,1.1,0.4,1.8,1.1,2.3c0.6,0.4,1.4,0.5,1.8,0.5c0.1,0,0.2,0,0.2,0l0.3,0V1.7h-3.4V14.1z
	"/>
<path fill="#FFFFFF" d="M115.8,1.4c-4.1,0-6.1,1.6-7,3.1c0-1.1-0.4-1.8-1.2-2.3c-0.6-0.4-1.4-0.5-1.8-0.5c-0.1,0-0.2,0-0.2,0l-0.3,0
	v21.5h3.4V11c0-3.7,2.6-6.4,6.1-6.4c3.5,0,5.7,2.3,5.7,6.2v9.6c0,1.9,1.6,2.8,3.2,2.9l0.3,0V10C124.1,4.7,120.9,1.4,115.8,1.4"/>
<path fill="#FFFFFF" d="M172.1,20.4c-0.2,0.1-1.3,0.6-2.3,0.6c-2.6,0-3.9-2.2-5.5-4.5c-0.2-0.3-0.4-0.6-0.7-1
	c-0.2-0.3-0.5-0.6-0.7-1h0.1c2.9-0.1,3.8-1,4.7-1.9l0.1-0.1c1.1-1.1,1.7-2.7,1.7-4.4c0-1.9-0.8-3.7-2.2-4.8
	c-1.4-1.2-3.4-1.8-5.7-1.8h-9.3v21.7h3.3l0-18.6h5.9c1.5,0,2.8,0.3,3.6,1c0.8,0.6,1.2,1.5,1.2,2.6c0,1.2-0.4,2.1-1.3,2.8
	c-0.9,0.7-2.1,1-3.5,1h-2.8c0,0-0.6,0-0.6,0c-0.1,0-0.1,0-0.1,0c-0.3,0-0.4,0.2-0.5,0.4c-0.1,0.2,0,0.4,0.2,0.6
	c1.4,1.1,2.6,2.7,3.7,4.2c0.3,0.4,0.6,0.8,0.9,1.3c1.6,2.4,3.3,5.1,6.5,5.1h0.1C170.5,23.6,172,22.2,172.1,20.4"/>
<path fill="#FFFFFF" d="M9,25.2c-3.1,0-4.7-1.7-4.8-5v-2.5l0.8,0c3.1,0,4.7,1.7,4.8,5l0,2.5L9,25.2z"/>
<path fill="#FFFFFF" d="M12.5,18.2v3.7c0,3-2.2,5.4-5.1,5.8l-0.1,0c-1,0.1-1.4,0.9-1.5,1.2l-0.1,0.2h0.9c4.1,0,7.3-3.2,7.3-7.2v-3.7
	H12.5z"/>
<path fill="#FFFFFF" d="M19.3,1c-0.5,0-1,0-1.5,0c-1.6,0-4,0.1-6,0.8c1.3,1.3,2.1,3.1,2.1,5.1V17c3.3-0.4,5.9-3.7,5.9-7.2h0V1
	C19.7,1,19.4,1,19.3,1"/>
<path fill="#FFFFFF" d="M9.2,1.6C8.5,1.3,7.6,1,6.7,1c0,0-0.1,0-0.2,0v3.5C7.2,3.4,8.1,2.4,9.2,1.6"/>
<path fill="#FFFFFF" d="M12.1,4.8L12.1,4.8c-0.3-0.9-0.9-1.7-1.6-2.3C8.1,3.9,6.5,6.3,6.5,9.1h0v1.3h0c0,3.4,2.6,6.2,6,6.6V6.9
	C12.5,6.1,12.3,5.4,12.1,4.8"/>
<line fill="none" stroke="#FFFFFF" stroke-miterlimit="10" x1="127.7" y1="27.4" x2="127.7" y2="36.6"/>
</svg>
